<svg width="20" height="20" viewBox="0 0 20 20" fill="none" xmlns="http://www.w3.org/2000/svg">
<path fill-rule="evenodd" clip-rule="evenodd" d="M5.5 1C3.567 1 2 2.567 2 4.5V12.5C2 12.7761 2.22386 13 2.5 13C2.77614 13 3 12.7761 3 12.5V4.5C3 3.11929 4.11929 2 5.5 2H11.5C11.7761 2 12 1.77614 12 1.5C12 1.22386 11.7761 1 11.5 1H5.5ZM8 4C6.34315 4 5 5.34315 5 7V15C5 16.6569 6.34315 18 8 18H14C15.6569 18 17 16.6569 17 15V7C17 5.34315 15.6569 4 14 4H8ZM7 7C7 6.44772 7.44772 6 8 6H14C14.5523 6 15 6.44772 15 7V15C15 15.5523 14.5523 16 14 16H8C7.44772 16 7 15.5523 7 15V7Z" fill="#668899"/>
</svg>
