<svg width="5" height="10" viewBox="0 0 5 10" fill="none" xmlns="http://www.w3.org/2000/svg">
<path fill-rule="evenodd" clip-rule="evenodd" d="M2.99999 2C3.55228 2 3.99999 1.55228 3.99999 1C3.99999 0.447715 3.55228 0 2.99999 0C2.44771 0 1.99999 0.447715 1.99999 1C1.99999 1.55228 2.44771 2 2.99999 2ZM0.499991 3H2.58406C3.28881 3 3.77246 3.70949 3.51488 4.36548L2.48045 6.99999C1.96693 8.30783 2.0723 8.5 2.56285 8.5C2.98448 8.5 3.46244 7.95516 3.93163 7.42033C4.00569 7.33591 4.07953 7.25173 4.1529 7.16999C4.52637 6.75389 5.21344 7.19379 4.93544 7.69998C4.49608 8.49999 3.53922 10 1.58648 10C-0.36626 10 -0.149172 8.7 0.32178 7.49999L1.69535 3.99998L0.499991 3.99998C0.223854 3.99998 0 3.77613 0 3.49999C0 3.22385 0.223853 3 0.499991 3Z" fill="#88AABB"/>
</svg>
