<svg width="160" height="160" viewBox="0 0 160 160" fill="none" xmlns="http://www.w3.org/2000/svg">
<g clip-path="url(#clip0_1_413)">
<path d="M31.9999 16.0002H15.9999V32.0002H31.9999V16.0002Z" fill="#44596F"/>
<path d="M112 0.000244141V8.00024H104V16.0002H112V48.0002H120V56.0002H112V64.0002H120H128V48.0002H152V56.0002H160V48.0002V0.000244141H112ZM152 40.0002H120V8.00024H152V40.0002Z" fill="#44596F"/>
<path d="M144 16.0002H128V32.0002H144V16.0002Z" fill="#44596F"/>
<path d="M31.9998 128.001H15.9998V144H31.9998V128.001Z" fill="#44596F"/>
<path d="M120 112H112V120H120V112Z" fill="#44596F"/>
<path d="M79.9998 152H71.9998V160H79.9998V152Z" fill="#44596F"/>
<path d="M88.0002 120H80.0002V128H88.0002V120Z" fill="#44596F"/>
<path d="M88.0002 136H80.0002V144H88.0002V136Z" fill="#44596F"/>
<path d="M160 96.0002H152V104H160V96.0002Z" fill="#44596F"/>
<path d="M7.99994 96.0002H-6.10352e-05V104H7.99994V96.0002Z" fill="#44596F"/>
<path d="M7.99994 56.0002H-6.10352e-05V64.0002H7.99994V56.0002Z" fill="#44596F"/>
<path d="M87.9998 8.00052V16.0005H71.9998V24.0005H95.9998V16.0005V8.00052H87.9998Z" fill="#44596F"/>
<path d="M152 64.0002V72.0002H136V80.0002H112V72.0002H104V80.0002H88V88.0002H112V96.0002H96H88V88.0002H80V96.0002H72V88.0002H64V96.0002H56V104H72V112H80V104H96V112H88V120H96V136H104V144H112V136H136V120H144V112H136V96.0002H120V88.0002H136V96.0002H144V88.0002H152V80.0002H160V72.0002V64.0002H152ZM128 104V128H104V104H128Z" fill="#44596F"/>
<path d="M104 48.0005H96.0002V56.0005H88.0002V64.0005V72.0005H96.0002V64.0005H104V56.0005H112V48.0005H104Z" fill="#44596F"/>
<path d="M104 152H88.0002V160H104V152Z" fill="#44596F"/>
<path d="M72.0002 8.00052H64.0002V16.0005H72.0002V8.00052Z" fill="#44596F"/>
<path d="M11.678 76.3218H3.67804V84.3218H11.678V76.3218Z" fill="#44596F"/>
<path d="M144 56.0002H136V64.0002H144V56.0002Z" fill="#44596F"/>
<path d="M39.9998 96.0002H31.9998V104H39.9998V96.0002Z" fill="#44596F"/>
<path d="M47.9999 152V120H55.9999V112V104H47.9999V112H23.9999V104H15.9999H7.99994V112H-6.10352e-05V160H47.9999H63.9999V152H47.9999ZM39.9999 152H7.99994V120H39.9999V152Z" fill="#44596F"/>
<path d="M56.0002 48.0005H48.0002V56.0005H56.0002V48.0005Z" fill="#44596F"/>
<path d="M56 0H48H0V48H8V56H16V48H24V56H32V48H48V32H56V24H48V8H56H64V0H56ZM40 40H8V8H40V40Z" fill="#44596F"/>
<path d="M104 24.0002H96V32.0002H104V24.0002Z" fill="#44596F"/>
<path d="M88.0002 0H80.0002V8H88.0002V0Z" fill="#44596F"/>
<path d="M95.9999 47.9998V39.9998H87.9999V31.9998H79.9999V39.9998H63.9999V31.9998H55.9999V39.9998V47.9998H63.9999V63.9998H39.9999V55.9998H31.9999V63.9998H7.99994V71.9997H23.9999V79.9998H-6.10352e-05V87.9998H23.9999V95.9998H31.9999V87.9998H39.9999V95.9998H47.9999V87.9998H63.9999V79.9998H55.9999V71.9997H63.9999H71.9999V79.9998H79.9999H87.9999V71.9997H79.9999V63.9998H71.9999V47.9998H95.9999ZM47.9999 79.9998H31.9999V71.9997H47.9999V79.9998Z" fill="#44596F"/>
<path d="M71.9997 128V120V112H63.9998V120H55.9998V128H63.9998V136H55.9998V144H71.9997V136H79.9997V128H71.9997Z" fill="#44596F"/>
<path d="M144 144V136H136V144H112V152H128V160H136V152H152V160H160V152V144H144Z" fill="#44596F"/>
<path d="M152 112V120H144V128H160V120V112H152Z" fill="#44596F"/>
</g>
<defs>
<clipPath id="clip0_1_413">
<rect width="160" height="160" fill="white"/>
</clipPath>
</defs>
</svg>
