<svg width="20" height="20" viewBox="0 0 20 20" fill="none" xmlns="http://www.w3.org/2000/svg">
<mask id="mask0_141_74" style="mask-type:alpha" maskUnits="userSpaceOnUse" x="0" y="0" width="20" height="20">
<rect width="20" height="20" fill="white"/>
</mask>
<g mask="url(#mask0_141_74)">
<path d="M1.66667 5.83333V1.66666H5.83333V3.33333H3.33333V5.83333H1.66667ZM1.66667 18.3333V14.1667H3.33333V16.6667H5.83333V18.3333H1.66667ZM14.1667 18.3333V16.6667H16.6667V14.1667H18.3333V18.3333H14.1667ZM16.6667 5.83333V3.33333H14.1667V1.66666H18.3333V5.83333H16.6667ZM14.5833 14.5833H15.8333V15.8333H14.5833V14.5833ZM14.5833 12.0833H15.8333V13.3333H14.5833V12.0833ZM13.3333 13.3333H14.5833V14.5833H13.3333V13.3333ZM12.0833 14.5833H13.3333V15.8333H12.0833V14.5833ZM10.8333 13.3333H12.0833V14.5833H10.8333V13.3333ZM13.3333 10.8333H14.5833V12.0833H13.3333V10.8333ZM12.0833 12.0833H13.3333V13.3333H12.0833V12.0833ZM10.8333 10.8333H12.0833V12.0833H10.8333V10.8333ZM15.8333 4.16666V9.16666H10.8333V4.16666H15.8333ZM9.16667 10.8333V15.8333H4.16667V10.8333H9.16667ZM9.16667 4.16666V9.16666H4.16667V4.16666H9.16667ZM7.91667 14.5833V12.0833H5.41667V14.5833H7.91667ZM7.91667 7.91666V5.41666H5.41667V7.91666H7.91667ZM14.5833 7.91666V5.41666H12.0833V7.91666H14.5833Z" fill="white"/>
</g>
</svg>
