
<svg xmlns="http://www.w3.org/2000/svg" style="display: none;">
    <defs>
        <symbol id="copy-icon" viewBox="0 0 44 44">
            <path fill-rule="evenodd" clip-rule="evenodd" d="M13 6.89999C10.5147 6.89999 8.5 8.91471 8.5 11.4V26C8.5 26.8284 9.17157 27.5 10 27.5C10.8284 27.5 11.5 26.8284 11.5 26V11.4C11.5 10.5716 12.1716 9.89999 13 9.89999H24.4C25.2284 9.89999 25.9 9.22842 25.9 8.39999C25.9 7.57157 25.2284 6.89999 24.4 6.89999H13ZM17.6 12.5C15.667 12.5 14.1 14.067 14.1 16V31.2C14.1 33.133 15.667 34.7 17.6 34.7H29.6C31.533 34.7 33.1 33.133 33.1 31.2V16C33.1 14.067 31.533 12.5 29.6 12.5H17.6ZM17.1 16C17.1 15.7239 17.3239 15.5 17.6 15.5H29.6C29.8761 15.5 30.1 15.7239 30.1 16V31.2C30.1 31.4761 29.8761 31.7 29.6 31.7H17.6C17.3239 31.7 17.1 31.4761 17.1 31.2V16Z" fill="#C5DCFF"/>
        </symbol>
    </defs>
</svg>